<mxfile host="app.diagrams.net" modified="2023-05-30T10:08:51.718Z" agent="Mozilla/5.0 (Macintosh; Intel Mac OS X 10_15_7) AppleWebKit/537.36 (KHTML, like Gecko) Chrome/113.0.0.0 Safari/537.36" etag="urGH2sBluuFjayZRN0Z4" version="21.3.3" type="device">
  <diagram name="Page-1" id="1liTm15afsR-puAgwV_L">
    <mxGraphModel dx="1434" dy="746" grid="1" gridSize="10" guides="1" tooltips="1" connect="1" arrows="1" fold="1" page="1" pageScale="1" pageWidth="1169" pageHeight="827" math="0" shadow="0">
      <root>
        <mxCell id="0" />
        <mxCell id="1" parent="0" />
        <mxCell id="zWmy7efZT_JnDAbeR441-1" value="&lt;font style=&quot;font-size: 16px;&quot;&gt;CLIENT&lt;/font&gt;" style="rounded=1;whiteSpace=wrap;html=1;fillColor=#d5e8d4;strokeColor=#82b366;" vertex="1" parent="1">
          <mxGeometry x="425" y="64" width="112.5" height="30" as="geometry" />
        </mxCell>
        <mxCell id="zWmy7efZT_JnDAbeR441-2" value="&lt;font style=&quot;font-size: 16px;&quot;&gt;DNS SERVER&lt;/font&gt;" style="rounded=1;whiteSpace=wrap;html=1;fillColor=#e1d5e7;strokeColor=#9673a6;" vertex="1" parent="1">
          <mxGeometry x="785" y="94" width="120" height="70" as="geometry" />
        </mxCell>
        <mxCell id="zWmy7efZT_JnDAbeR441-3" value="" style="rounded=1;whiteSpace=wrap;html=1;fillColor=#dae8fc;strokeColor=#6c8ebf;" vertex="1" parent="1">
          <mxGeometry x="785" y="184" width="130" height="560" as="geometry" />
        </mxCell>
        <mxCell id="zWmy7efZT_JnDAbeR441-4" value="&lt;font style=&quot;font-size: 16px;&quot;&gt;WEB SERVER&lt;/font&gt;" style="text;html=1;strokeColor=none;fillColor=none;align=center;verticalAlign=middle;whiteSpace=wrap;rounded=0;" vertex="1" parent="1">
          <mxGeometry x="795" y="204" width="110" height="40" as="geometry" />
        </mxCell>
        <mxCell id="zWmy7efZT_JnDAbeR441-5" value="" style="endArrow=none;html=1;rounded=0;strokeWidth=4;" edge="1" parent="1">
          <mxGeometry width="50" height="50" relative="1" as="geometry">
            <mxPoint x="765" y="754" as="sourcePoint" />
            <mxPoint x="765" y="84" as="targetPoint" />
          </mxGeometry>
        </mxCell>
        <mxCell id="zWmy7efZT_JnDAbeR441-7" value="&lt;font style=&quot;font-size: 14px;&quot;&gt;1.1.1.1&lt;/font&gt;" style="text;html=1;strokeColor=none;fillColor=none;align=center;verticalAlign=middle;whiteSpace=wrap;rounded=0;" vertex="1" parent="1">
          <mxGeometry x="835" y="144" width="60" height="20" as="geometry" />
        </mxCell>
        <mxCell id="zWmy7efZT_JnDAbeR441-8" value="&lt;font style=&quot;font-size: 16px;&quot;&gt;SSL LAYER&lt;/font&gt;" style="rounded=1;whiteSpace=wrap;html=1;fillColor=#f8cecc;strokeColor=#b85450;" vertex="1" parent="1">
          <mxGeometry x="795" y="314" width="110" height="46" as="geometry" />
        </mxCell>
        <mxCell id="zWmy7efZT_JnDAbeR441-9" value="&lt;font style=&quot;font-size: 16px;&quot;&gt;HTTP LAYER&lt;/font&gt;" style="rounded=1;whiteSpace=wrap;html=1;fillColor=#f5f5f5;strokeColor=#666666;fontColor=#333333;" vertex="1" parent="1">
          <mxGeometry x="795" y="524" width="110" height="46" as="geometry" />
        </mxCell>
        <mxCell id="zWmy7efZT_JnDAbeR441-10" value="&lt;font style=&quot;font-size: 16px;&quot;&gt;TRANSFER&lt;br&gt;LAYER&lt;br&gt;&lt;/font&gt;" style="rounded=1;whiteSpace=wrap;html=1;fillColor=#fff2cc;strokeColor=#d6b656;" vertex="1" parent="1">
          <mxGeometry x="795" y="614" width="110" height="46" as="geometry" />
        </mxCell>
        <mxCell id="zWmy7efZT_JnDAbeR441-11" value="" style="endArrow=classic;html=1;rounded=0;" edge="1" parent="1">
          <mxGeometry width="50" height="50" relative="1" as="geometry">
            <mxPoint x="485" y="104" as="sourcePoint" />
            <mxPoint x="765" y="104" as="targetPoint" />
          </mxGeometry>
        </mxCell>
        <mxCell id="zWmy7efZT_JnDAbeR441-13" value="&lt;font style=&quot;font-size: 12px;&quot;&gt;DNS REQUEST&lt;/font&gt;" style="edgeLabel;html=1;align=center;verticalAlign=middle;resizable=0;points=[];" vertex="1" connectable="0" parent="zWmy7efZT_JnDAbeR441-11">
          <mxGeometry x="0.2" relative="1" as="geometry">
            <mxPoint x="2" as="offset" />
          </mxGeometry>
        </mxCell>
        <mxCell id="zWmy7efZT_JnDAbeR441-12" value="" style="endArrow=none;html=1;rounded=0;strokeWidth=4;" edge="1" parent="1">
          <mxGeometry width="50" height="50" relative="1" as="geometry">
            <mxPoint x="485" y="754" as="sourcePoint" />
            <mxPoint x="485" y="94" as="targetPoint" />
          </mxGeometry>
        </mxCell>
        <mxCell id="zWmy7efZT_JnDAbeR441-14" value="" style="endArrow=classic;html=1;rounded=0;dashed=1;strokeWidth=1;" edge="1" parent="1">
          <mxGeometry width="50" height="50" relative="1" as="geometry">
            <mxPoint x="765" y="154" as="sourcePoint" />
            <mxPoint x="485" y="154" as="targetPoint" />
          </mxGeometry>
        </mxCell>
        <mxCell id="zWmy7efZT_JnDAbeR441-15" value="&lt;font style=&quot;font-size: 12px;&quot;&gt;DNS RESPONSE&lt;/font&gt;" style="edgeLabel;html=1;align=center;verticalAlign=middle;resizable=0;points=[];" vertex="1" connectable="0" parent="zWmy7efZT_JnDAbeR441-14">
          <mxGeometry x="0.1286" y="-1" relative="1" as="geometry">
            <mxPoint x="8" y="1" as="offset" />
          </mxGeometry>
        </mxCell>
        <mxCell id="zWmy7efZT_JnDAbeR441-17" value="" style="endArrow=classic;html=1;rounded=0;" edge="1" parent="1">
          <mxGeometry width="50" height="50" relative="1" as="geometry">
            <mxPoint x="485" y="204" as="sourcePoint" />
            <mxPoint x="765" y="204" as="targetPoint" />
          </mxGeometry>
        </mxCell>
        <mxCell id="zWmy7efZT_JnDAbeR441-18" value="&lt;font style=&quot;font-size: 12px;&quot;&gt;SYN&lt;/font&gt;" style="edgeLabel;html=1;align=center;verticalAlign=middle;resizable=0;points=[];" vertex="1" connectable="0" parent="zWmy7efZT_JnDAbeR441-17">
          <mxGeometry x="0.2" relative="1" as="geometry">
            <mxPoint x="2" as="offset" />
          </mxGeometry>
        </mxCell>
        <mxCell id="zWmy7efZT_JnDAbeR441-19" value="" style="endArrow=classic;html=1;rounded=0;dashed=1;strokeWidth=1;" edge="1" parent="1">
          <mxGeometry width="50" height="50" relative="1" as="geometry">
            <mxPoint x="765" y="234" as="sourcePoint" />
            <mxPoint x="485" y="234" as="targetPoint" />
          </mxGeometry>
        </mxCell>
        <mxCell id="zWmy7efZT_JnDAbeR441-20" value="&lt;font style=&quot;font-size: 12px;&quot;&gt;SYN+ACK&lt;/font&gt;" style="edgeLabel;html=1;align=center;verticalAlign=middle;resizable=0;points=[];" vertex="1" connectable="0" parent="zWmy7efZT_JnDAbeR441-19">
          <mxGeometry x="0.1286" y="-1" relative="1" as="geometry">
            <mxPoint x="-12" y="1" as="offset" />
          </mxGeometry>
        </mxCell>
        <mxCell id="zWmy7efZT_JnDAbeR441-21" value="" style="endArrow=classic;html=1;rounded=0;" edge="1" parent="1">
          <mxGeometry width="50" height="50" relative="1" as="geometry">
            <mxPoint x="485" y="264" as="sourcePoint" />
            <mxPoint x="765" y="264" as="targetPoint" />
          </mxGeometry>
        </mxCell>
        <mxCell id="zWmy7efZT_JnDAbeR441-22" value="&lt;span style=&quot;font-size: 12px;&quot;&gt;ACK&lt;/span&gt;" style="edgeLabel;html=1;align=center;verticalAlign=middle;resizable=0;points=[];" vertex="1" connectable="0" parent="zWmy7efZT_JnDAbeR441-21">
          <mxGeometry x="0.2" relative="1" as="geometry">
            <mxPoint x="2" as="offset" />
          </mxGeometry>
        </mxCell>
        <mxCell id="zWmy7efZT_JnDAbeR441-23" value="" style="endArrow=none;dashed=1;html=1;rounded=0;dashPattern=12 12;strokeWidth=0.5;" edge="1" parent="1">
          <mxGeometry width="50" height="50" relative="1" as="geometry">
            <mxPoint x="207.5" y="294" as="sourcePoint" />
            <mxPoint x="965" y="294" as="targetPoint" />
          </mxGeometry>
        </mxCell>
        <mxCell id="zWmy7efZT_JnDAbeR441-24" value="" style="endArrow=none;dashed=1;html=1;rounded=0;dashPattern=12 12;strokeWidth=0.5;" edge="1" parent="1">
          <mxGeometry width="50" height="50" relative="1" as="geometry">
            <mxPoint x="207.5" y="174" as="sourcePoint" />
            <mxPoint x="965" y="174" as="targetPoint" />
          </mxGeometry>
        </mxCell>
        <mxCell id="zWmy7efZT_JnDAbeR441-25" value="" style="endArrow=classic;html=1;rounded=0;" edge="1" parent="1">
          <mxGeometry width="50" height="50" relative="1" as="geometry">
            <mxPoint x="485" y="324" as="sourcePoint" />
            <mxPoint x="765" y="324" as="targetPoint" />
          </mxGeometry>
        </mxCell>
        <mxCell id="zWmy7efZT_JnDAbeR441-26" value="&lt;span style=&quot;font-size: 12px;&quot;&gt;CLIENT HELLO&lt;/span&gt;" style="edgeLabel;html=1;align=center;verticalAlign=middle;resizable=0;points=[];" vertex="1" connectable="0" parent="zWmy7efZT_JnDAbeR441-25">
          <mxGeometry x="0.2" relative="1" as="geometry">
            <mxPoint x="2" as="offset" />
          </mxGeometry>
        </mxCell>
        <mxCell id="zWmy7efZT_JnDAbeR441-27" value="" style="endArrow=classic;html=1;rounded=0;dashed=1;strokeWidth=1;" edge="1" parent="1">
          <mxGeometry width="50" height="50" relative="1" as="geometry">
            <mxPoint x="765" y="354" as="sourcePoint" />
            <mxPoint x="485" y="354" as="targetPoint" />
          </mxGeometry>
        </mxCell>
        <mxCell id="zWmy7efZT_JnDAbeR441-28" value="&lt;font style=&quot;font-size: 12px;&quot;&gt;SERVER HELLO&lt;/font&gt;" style="edgeLabel;html=1;align=center;verticalAlign=middle;resizable=0;points=[];" vertex="1" connectable="0" parent="zWmy7efZT_JnDAbeR441-27">
          <mxGeometry x="0.1286" y="-1" relative="1" as="geometry">
            <mxPoint x="-12" y="1" as="offset" />
          </mxGeometry>
        </mxCell>
        <mxCell id="zWmy7efZT_JnDAbeR441-29" value="" style="endArrow=classic;html=1;rounded=0;" edge="1" parent="1">
          <mxGeometry width="50" height="50" relative="1" as="geometry">
            <mxPoint x="485" y="384" as="sourcePoint" />
            <mxPoint x="765" y="384" as="targetPoint" />
          </mxGeometry>
        </mxCell>
        <mxCell id="zWmy7efZT_JnDAbeR441-30" value="&lt;span style=&quot;font-size: 12px;&quot;&gt;CLIENT KEY CHANGE&lt;/span&gt;" style="edgeLabel;html=1;align=center;verticalAlign=middle;resizable=0;points=[];" vertex="1" connectable="0" parent="zWmy7efZT_JnDAbeR441-29">
          <mxGeometry x="0.2" relative="1" as="geometry">
            <mxPoint x="2" as="offset" />
          </mxGeometry>
        </mxCell>
        <mxCell id="zWmy7efZT_JnDAbeR441-31" value="" style="endArrow=classic;html=1;rounded=0;" edge="1" parent="1">
          <mxGeometry width="50" height="50" relative="1" as="geometry">
            <mxPoint x="485" y="408" as="sourcePoint" />
            <mxPoint x="765" y="408" as="targetPoint" />
          </mxGeometry>
        </mxCell>
        <mxCell id="zWmy7efZT_JnDAbeR441-32" value="&lt;span style=&quot;font-size: 12px;&quot;&gt;CLIENT DONE&lt;/span&gt;" style="edgeLabel;html=1;align=center;verticalAlign=middle;resizable=0;points=[];" vertex="1" connectable="0" parent="zWmy7efZT_JnDAbeR441-31">
          <mxGeometry x="0.2" relative="1" as="geometry">
            <mxPoint x="-18" as="offset" />
          </mxGeometry>
        </mxCell>
        <mxCell id="zWmy7efZT_JnDAbeR441-33" value="" style="endArrow=classic;html=1;rounded=0;dashed=1;strokeWidth=1;" edge="1" parent="1">
          <mxGeometry width="50" height="50" relative="1" as="geometry">
            <mxPoint x="765" y="434" as="sourcePoint" />
            <mxPoint x="485" y="434" as="targetPoint" />
          </mxGeometry>
        </mxCell>
        <mxCell id="zWmy7efZT_JnDAbeR441-34" value="&lt;font style=&quot;font-size: 12px;&quot;&gt;SERVER DONE&lt;/font&gt;" style="edgeLabel;html=1;align=center;verticalAlign=middle;resizable=0;points=[];" vertex="1" connectable="0" parent="zWmy7efZT_JnDAbeR441-33">
          <mxGeometry x="0.1286" y="-1" relative="1" as="geometry">
            <mxPoint x="-12" y="1" as="offset" />
          </mxGeometry>
        </mxCell>
        <mxCell id="zWmy7efZT_JnDAbeR441-35" value="" style="endArrow=classic;startArrow=classic;html=1;rounded=0;" edge="1" parent="1">
          <mxGeometry width="50" height="50" relative="1" as="geometry">
            <mxPoint x="485" y="474" as="sourcePoint" />
            <mxPoint x="765" y="474" as="targetPoint" />
          </mxGeometry>
        </mxCell>
        <mxCell id="zWmy7efZT_JnDAbeR441-36" value="EXCHANGE MESSAGES" style="edgeLabel;html=1;align=center;verticalAlign=middle;resizable=0;points=[];" vertex="1" connectable="0" parent="zWmy7efZT_JnDAbeR441-35">
          <mxGeometry x="-0.1714" y="1" relative="1" as="geometry">
            <mxPoint x="24" as="offset" />
          </mxGeometry>
        </mxCell>
        <mxCell id="zWmy7efZT_JnDAbeR441-37" value="" style="endArrow=none;dashed=1;html=1;rounded=0;dashPattern=12 12;strokeWidth=0.5;" edge="1" parent="1">
          <mxGeometry width="50" height="50" relative="1" as="geometry">
            <mxPoint x="207.5" y="504" as="sourcePoint" />
            <mxPoint x="965" y="504" as="targetPoint" />
          </mxGeometry>
        </mxCell>
        <mxCell id="zWmy7efZT_JnDAbeR441-38" value="" style="endArrow=classic;html=1;rounded=0;" edge="1" parent="1">
          <mxGeometry width="50" height="50" relative="1" as="geometry">
            <mxPoint x="485" y="514" as="sourcePoint" />
            <mxPoint x="765" y="564" as="targetPoint" />
          </mxGeometry>
        </mxCell>
        <mxCell id="zWmy7efZT_JnDAbeR441-39" value="&lt;span style=&quot;font-size: 12px;&quot;&gt;ESTABLISH CONNECTION&lt;/span&gt;" style="edgeLabel;html=1;align=center;verticalAlign=middle;resizable=0;points=[];rotation=10;" vertex="1" connectable="0" parent="zWmy7efZT_JnDAbeR441-38">
          <mxGeometry x="0.2" relative="1" as="geometry">
            <mxPoint x="2" y="-10" as="offset" />
          </mxGeometry>
        </mxCell>
        <mxCell id="zWmy7efZT_JnDAbeR441-40" value="" style="endArrow=classic;html=1;rounded=0;" edge="1" parent="1">
          <mxGeometry width="50" height="50" relative="1" as="geometry">
            <mxPoint x="485" y="534" as="sourcePoint" />
            <mxPoint x="765" y="584" as="targetPoint" />
          </mxGeometry>
        </mxCell>
        <mxCell id="zWmy7efZT_JnDAbeR441-41" value="&lt;span style=&quot;font-size: 12px;&quot;&gt;INITIAL HTTP REQUEST&lt;/span&gt;" style="edgeLabel;html=1;align=center;verticalAlign=middle;resizable=0;points=[];rotation=10;" vertex="1" connectable="0" parent="zWmy7efZT_JnDAbeR441-40">
          <mxGeometry x="0.2" relative="1" as="geometry">
            <mxPoint x="-6" y="-10" as="offset" />
          </mxGeometry>
        </mxCell>
        <mxCell id="zWmy7efZT_JnDAbeR441-42" value="" style="endArrow=classic;html=1;rounded=0;" edge="1" parent="1">
          <mxGeometry width="50" height="50" relative="1" as="geometry">
            <mxPoint x="765" y="604" as="sourcePoint" />
            <mxPoint x="485" y="674" as="targetPoint" />
          </mxGeometry>
        </mxCell>
        <mxCell id="zWmy7efZT_JnDAbeR441-43" value="" style="endArrow=classic;html=1;rounded=0;" edge="1" parent="1">
          <mxGeometry width="50" height="50" relative="1" as="geometry">
            <mxPoint x="765" y="614" as="sourcePoint" />
            <mxPoint x="485" y="684" as="targetPoint" />
          </mxGeometry>
        </mxCell>
        <mxCell id="zWmy7efZT_JnDAbeR441-45" value="SEND DATA" style="edgeLabel;html=1;align=center;verticalAlign=middle;resizable=0;points=[];rotation=-15;" vertex="1" connectable="0" parent="zWmy7efZT_JnDAbeR441-43">
          <mxGeometry x="0.079" y="-4" relative="1" as="geometry">
            <mxPoint x="12" as="offset" />
          </mxGeometry>
        </mxCell>
        <mxCell id="zWmy7efZT_JnDAbeR441-44" value="" style="endArrow=classic;html=1;rounded=0;" edge="1" parent="1">
          <mxGeometry width="50" height="50" relative="1" as="geometry">
            <mxPoint x="765" y="624" as="sourcePoint" />
            <mxPoint x="485" y="694" as="targetPoint" />
          </mxGeometry>
        </mxCell>
        <mxCell id="zWmy7efZT_JnDAbeR441-46" value="" style="endArrow=none;dashed=1;html=1;rounded=0;dashPattern=12 12;strokeWidth=0.5;" edge="1" parent="1">
          <mxGeometry width="50" height="50" relative="1" as="geometry">
            <mxPoint x="207.5" y="594" as="sourcePoint" />
            <mxPoint x="965" y="594" as="targetPoint" />
          </mxGeometry>
        </mxCell>
        <mxCell id="zWmy7efZT_JnDAbeR441-47" value="" style="endArrow=none;dashed=1;html=1;rounded=0;dashPattern=12 12;strokeWidth=0.5;" edge="1" parent="1">
          <mxGeometry width="50" height="50" relative="1" as="geometry">
            <mxPoint x="207.5" y="714" as="sourcePoint" />
            <mxPoint x="965" y="714" as="targetPoint" />
          </mxGeometry>
        </mxCell>
        <mxCell id="zWmy7efZT_JnDAbeR441-50" value="&lt;font style=&quot;font-size: 16px;&quot;&gt;DNS LOOKUP&lt;/font&gt;" style="text;html=1;strokeColor=none;fillColor=none;align=center;verticalAlign=middle;whiteSpace=wrap;rounded=0;" vertex="1" parent="1">
          <mxGeometry x="237.5" y="104" width="80" height="40" as="geometry" />
        </mxCell>
        <mxCell id="zWmy7efZT_JnDAbeR441-51" value="&lt;font style=&quot;&quot;&gt;&lt;span style=&quot;font-size: 16px;&quot;&gt;TCP HANDSHAKE&lt;/span&gt;&lt;br&gt;&lt;font style=&quot;font-size: 14px;&quot;&gt;HTTP - HTTPS&lt;/font&gt;&lt;br&gt;&lt;/font&gt;" style="text;html=1;strokeColor=none;fillColor=none;align=center;verticalAlign=middle;whiteSpace=wrap;rounded=0;" vertex="1" parent="1">
          <mxGeometry x="205" y="214" width="150" height="50" as="geometry" />
        </mxCell>
        <mxCell id="zWmy7efZT_JnDAbeR441-53" value="&lt;font style=&quot;font-size: 16px;&quot;&gt;DONE&lt;/font&gt;" style="text;html=1;strokeColor=none;fillColor=none;align=center;verticalAlign=middle;whiteSpace=wrap;rounded=0;" vertex="1" parent="1">
          <mxGeometry x="232.5" y="734" width="60" height="30" as="geometry" />
        </mxCell>
        <mxCell id="zWmy7efZT_JnDAbeR441-54" value="&lt;font style=&quot;font-size: 16px;&quot;&gt;TRANSFER&lt;/font&gt;" style="text;html=1;strokeColor=none;fillColor=none;align=center;verticalAlign=middle;whiteSpace=wrap;rounded=0;" vertex="1" parent="1">
          <mxGeometry x="222.5" y="634" width="100" height="30" as="geometry" />
        </mxCell>
        <mxCell id="zWmy7efZT_JnDAbeR441-55" value="&lt;font style=&quot;font-size: 16px;&quot;&gt;TRYING&lt;br&gt;CONNECTION&lt;br&gt;&lt;/font&gt;" style="text;html=1;strokeColor=none;fillColor=none;align=center;verticalAlign=middle;whiteSpace=wrap;rounded=0;" vertex="1" parent="1">
          <mxGeometry x="207.5" y="530" width="130" height="40" as="geometry" />
        </mxCell>
        <mxCell id="zWmy7efZT_JnDAbeR441-56" value="&lt;font style=&quot;&quot;&gt;&lt;span style=&quot;font-size: 16px;&quot;&gt;SSL HANDSHAKE&lt;/span&gt;&lt;br&gt;&lt;font style=&quot;font-size: 14px;&quot;&gt;HTTPS ONLY&lt;/font&gt;&lt;br&gt;&lt;/font&gt;" style="text;html=1;strokeColor=none;fillColor=none;align=center;verticalAlign=middle;whiteSpace=wrap;rounded=0;" vertex="1" parent="1">
          <mxGeometry x="207.5" y="372" width="145" height="36" as="geometry" />
        </mxCell>
        <mxCell id="zWmy7efZT_JnDAbeR441-57" value="time_namelookup" style="text;html=1;strokeColor=none;fillColor=none;align=center;verticalAlign=middle;whiteSpace=wrap;rounded=0;" vertex="1" parent="1">
          <mxGeometry x="292.5" y="149" width="130" height="25" as="geometry" />
        </mxCell>
        <mxCell id="zWmy7efZT_JnDAbeR441-58" value="time_connect" style="text;html=1;strokeColor=none;fillColor=none;align=center;verticalAlign=middle;whiteSpace=wrap;rounded=0;" vertex="1" parent="1">
          <mxGeometry x="287.5" y="266.5" width="130" height="25" as="geometry" />
        </mxCell>
        <mxCell id="zWmy7efZT_JnDAbeR441-59" value="time_appconnect" style="text;html=1;strokeColor=none;fillColor=none;align=center;verticalAlign=middle;whiteSpace=wrap;rounded=0;" vertex="1" parent="1">
          <mxGeometry x="287.5" y="474" width="130" height="25" as="geometry" />
        </mxCell>
        <mxCell id="zWmy7efZT_JnDAbeR441-60" value="time_pretransfer" style="text;html=1;strokeColor=none;fillColor=none;align=center;verticalAlign=middle;whiteSpace=wrap;rounded=0;" vertex="1" parent="1">
          <mxGeometry x="287.5" y="504" width="130" height="25" as="geometry" />
        </mxCell>
        <mxCell id="zWmy7efZT_JnDAbeR441-61" value="time_starttransfer" style="text;html=1;strokeColor=none;fillColor=none;align=center;verticalAlign=middle;whiteSpace=wrap;rounded=0;" vertex="1" parent="1">
          <mxGeometry x="287.5" y="570" width="130" height="25" as="geometry" />
        </mxCell>
        <mxCell id="zWmy7efZT_JnDAbeR441-62" value="total" style="text;html=1;strokeColor=none;fillColor=none;align=center;verticalAlign=middle;whiteSpace=wrap;rounded=0;" vertex="1" parent="1">
          <mxGeometry x="302.5" y="714" width="120" height="25" as="geometry" />
        </mxCell>
        <mxCell id="zWmy7efZT_JnDAbeR441-63" value="0s" style="text;html=1;strokeColor=none;fillColor=none;align=center;verticalAlign=middle;whiteSpace=wrap;rounded=0;" vertex="1" parent="1">
          <mxGeometry x="447.5" y="94" width="32.5" height="30" as="geometry" />
        </mxCell>
        <mxCell id="zWmy7efZT_JnDAbeR441-64" value="0.054957s" style="text;html=1;strokeColor=none;fillColor=none;align=center;verticalAlign=middle;whiteSpace=wrap;rounded=0;" vertex="1" parent="1">
          <mxGeometry x="425" y="264" width="52.5" height="30" as="geometry" />
        </mxCell>
        <mxCell id="zWmy7efZT_JnDAbeR441-65" value="0.156494s" style="text;html=1;strokeColor=none;fillColor=none;align=center;verticalAlign=middle;whiteSpace=wrap;rounded=0;" vertex="1" parent="1">
          <mxGeometry x="417.5" y="504" width="62.5" height="30" as="geometry" />
        </mxCell>
        <mxCell id="zWmy7efZT_JnDAbeR441-66" value="0.001654s" style="text;html=1;strokeColor=none;fillColor=none;align=center;verticalAlign=middle;whiteSpace=wrap;rounded=0;" vertex="1" parent="1">
          <mxGeometry x="417.5" y="146.5" width="60" height="30" as="geometry" />
        </mxCell>
        <mxCell id="zWmy7efZT_JnDAbeR441-67" value="0.156267s" style="text;html=1;strokeColor=none;fillColor=none;align=center;verticalAlign=middle;whiteSpace=wrap;rounded=0;" vertex="1" parent="1">
          <mxGeometry x="420" y="474" width="60" height="30" as="geometry" />
        </mxCell>
        <mxCell id="zWmy7efZT_JnDAbeR441-68" value="0.219013s" style="text;html=1;strokeColor=none;fillColor=none;align=center;verticalAlign=middle;whiteSpace=wrap;rounded=0;" vertex="1" parent="1">
          <mxGeometry x="420" y="565" width="62.5" height="30" as="geometry" />
        </mxCell>
        <mxCell id="zWmy7efZT_JnDAbeR441-69" value="0.443749s" style="text;html=1;strokeColor=none;fillColor=none;align=center;verticalAlign=middle;whiteSpace=wrap;rounded=0;" vertex="1" parent="1">
          <mxGeometry x="420" y="714" width="62.5" height="30" as="geometry" />
        </mxCell>
      </root>
    </mxGraphModel>
  </diagram>
</mxfile>
